 http://www.imdb.com/title/tt1023114/

Source: The.Way.Back.720p.Bluray.x264.CBGB Thanks!

Subs: Albanian, Arabic, Argentinian, Brazilian, Chinese, Danish, Dutch, English, Farsi-Persian, French, Greek, Hebrew, Hungarian, Indonesian, Italian, Japanese, Norwegian, Polish, Portuguese, Romanian, Slovenian, Spanish, Swedish, Turkish and Vietnamese.

Subs: English hardcoded when needed.

Sample and Screens included.

General
Complete name                            : The Way Back-720p MP4 AAC x264 BRRip 2010-CC.mp4
Format                                   : MPEG-4
Format profile                           : Base Media
Codec ID                                 : isom
File size                                : 3.30 GiB
Duration                                 : 2h 13mn
Overall bit rate mode                    : Variable
Overall bit rate                         : 3 551 Kbps
Encoded date                             : UTC 2013-01-03 07:05:54

Video
ID                                       : 1
Format                                   : AVC
Format/Info                              : Advanced Video Codec
Format profile                           : High@L4.1
Format settings, CABAC                   : Yes
Format settings, ReFrames                : 5 frames
Codec ID                                 : avc1
Codec ID/Info                            : Advanced Video Coding
Duration                                 : 2h 13mn
Bit rate                                 : 3 264 Kbps
Maximum bit rate                         : 18.3 Mbps
Width                                    : 1 280 pixels
Height                                   : 544 pixels
Display aspect ratio                     : 2.35:1
Frame rate mode                          : Variable
Frame rate                               : 23.976 fps
Minimum frame rate                       : 19.048 fps
Maximum frame rate                       : 24.390 fps
Color space                              : YUV
Chroma subsampling                       : 4:2:0
Bit depth                                : 8 bits
Scan type                                : Progressive
Bits/(Pixel*Frame)                       : 0.196
Stream size                              : 2.94 GiB (89%)
Writing library                          : x264 core 112

Audio
ID                                       : 2
Format                                   : AAC
Format/Info                              : Advanced Audio Codec
Format profile                           : LC
Codec ID                                 : 40
Duration                                 : 2h 13mn
Bit rate mode                            : Variable
Bit rate                                 : 384 Kbps
Maximum bit rate                         : 714 Kbps
Channel(s)                               : 6 channels
Channel positions                        : Front: L C R, Side: L R, LFE
Sampling rate                            : 48.0 KHz
Compression mode                         : Lossy
Delay relative to video                  : 83ms
Stream size                              : 366 MiB (11%)
Language                                 : English

Enjoy...

Requested by Clair.

Coming soon: Apocalypse Hitler, Frequency, From Paris with Love, Ransom and more..